<?xml version="1.0" standalone="no"?>
<!DOCTYPE svg PUBLIC "-//W3C//DTD SVG 20010904//EN"
 "http://www.w3.org/TR/2001/REC-SVG-20010904/DTD/svg10.dtd">
<svg version="1.0" xmlns="http://www.w3.org/2000/svg"
 width="270.000000pt" height="270.000000pt" viewBox="0 0 270.000000 270.000000"
 preserveAspectRatio="xMidYMid meet">
<metadata>
Created by potrace 1.11, written by Peter Selinger 2001-2013
</metadata>
<g transform="translate(0.000000,270.000000) scale(0.100000,-0.100000)"
fill="#000000" stroke="none">
<path d="M1927 1753 c-14 -27 -27 -73 -31 -103 -10 -75 -36 -176 -51 -196 -11
-16 -14 -14 -26 19 -7 21 -18 36 -23 34 -6 -2 -20 -35 -32 -73 l-21 -69 -8 53
c-6 41 -11 52 -26 52 -11 0 -19 -6 -19 -12 0 -23 -20 16 -20 40 0 12 -4 22 -9
22 -10 0 -21 -24 -21 -48 0 -10 -10 -22 -22 -27 -14 -6 -30 -31 -43 -65 -19
-50 -24 -55 -50 -55 -25 0 -31 4 -33 28 -3 22 -7 27 -23 22 -12 -4 -19 -2 -19
8 0 14 -40 57 -53 57 -4 0 -7 -17 -8 -37 0 -21 -4 -46 -8 -56 -5 -15 -9 -12
-19 17 -8 20 -20 36 -28 36 -15 0 -18 -6 -28 -52 l-6 -28 -650 0 -650 0 0
-354 c0 -219 4 -357 10 -361 11 -7 16 14 25 98 l7 59 24 -23 c30 -28 39 -19
48 51 3 26 9 49 12 52 11 11 44 -5 50 -24 4 -15 12 -19 30 -15 21 4 25 -2 40
-47 9 -28 22 -56 29 -62 8 -5 17 -22 20 -37 4 -15 10 -27 14 -27 13 0 32 42
38 86 4 29 9 41 14 33 12 -21 18 -8 36 82 10 46 19 76 21 67 6 -32 20 -19 32
32 7 28 15 52 19 54 4 3 13 -11 20 -30 16 -45 28 -43 36 5 4 22 13 45 20 51
11 9 17 5 29 -23 28 -67 60 -57 71 23 4 28 11 52 16 56 5 3 9 0 9 -6 0 -6 11
-22 24 -35 20 -20 27 -44 41 -142 17 -118 28 -150 44 -125 5 9 16 -7 34 -47
15 -34 30 -61 35 -61 17 0 32 52 33 113 0 56 15 168 18 140 0 -6 6 -24 11 -38
8 -22 13 -25 24 -15 12 9 17 7 26 -9 32 -61 69 14 85 174 8 78 13 94 26 74 11
-18 23 -4 39 44 11 35 13 36 32 23 31 -22 45 -10 63 52 12 40 19 52 26 41 5
-8 9 -22 9 -31 0 -9 5 -29 11 -45 10 -27 11 -27 22 -8 7 11 19 47 27 80 l16
60 79 2 c44 1 84 -2 91 -8 7 -6 18 -8 23 -5 6 4 13 -9 17 -29 7 -40 24 -47 24
-11 0 59 -16 56 327 56 306 0 315 -1 320 -20 3 -11 11 -20 18 -20 7 0 16 -19
19 -45 8 -49 17 -59 46 -50 12 4 22 19 26 41 4 20 12 38 19 41 7 2 16 15 19
29 l6 24 175 0 175 0 0 24 c0 36 -37 146 -50 146 -4 0 -12 -10 -18 -22 -10
-21 -11 -20 -11 15 -1 25 -6 37 -15 37 -18 0 -27 -12 -47 -70 l-16 -45 -13 28
c-8 15 -19 26 -26 23 -8 -3 -14 15 -18 54 -4 33 -11 62 -16 65 -6 4 -10 1 -10
-4 0 -6 -4 -11 -10 -11 -5 0 -10 7 -10 15 0 8 -4 15 -9 15 -5 0 -12 -28 -15
-62 -17 -164 -16 -161 -36 -143 -23 21 -36 14 -43 -25 -6 -29 -8 -30 -66 -30
l-59 0 -7 60 c-7 59 -17 75 -29 44 -11 -28 -33 8 -45 71 -6 32 -11 60 -11 62
0 12 -19 0 -23 -14 -3 -10 -5 5 -6 33 -2 86 -11 116 -33 111 -13 -4 -22 1 -28
17 -5 13 -15 26 -23 29 -8 3 -17 19 -20 36 -9 45 -33 38 -60 -16z"/>
</g>
</svg>
